<?xml version="1.0" encoding="UTF-8" standalone="no"?><svg xmlns="http://www.w3.org/2000/svg" xmlns:xlink="http://www.w3.org/1999/xlink" contentScriptType="application/ecmascript" contentStyleType="text/css" height="1458px" preserveAspectRatio="none" style="width:3322px;height:1458px;" version="1.1" viewBox="0 0 3322 1458" width="3322px" zoomAndPan="magnify"><defs/><g><!--MD5=[02595a46d7ed2dfa3d8a199af989cffb]
cluster schemas--><polygon fill="#FFFFFF" points="60,848,196,848,210,892.9766,962,892.9766,962,1434,60,1434,60,848" style="stroke: #000000; stroke-width: 3.0;"/><line style="stroke: #000000; stroke-width: 3.0;" x1="60" x2="210" y1="892.9766" y2="892.9766"/><text fill="#000000" font-family="sans-serif" font-size="28" font-weight="bold" lengthAdjust="spacingAndGlyphs" textLength="124" x="68" y="879.0703">schemas</text><!--MD5=[69a0e5c2b1232acdf09eda205ae3d080]
cluster inputs--><polygon fill="#FFFFFF" points="1042,440,1146,440,1160,484.9766,1418,484.9766,1418,1115,1042,1115,1042,440" style="stroke: #000000; stroke-width: 3.0;"/><line style="stroke: #000000; stroke-width: 3.0;" x1="1042" x2="1160" y1="484.9766" y2="484.9766"/><text fill="#000000" font-family="sans-serif" font-size="28" font-weight="bold" lengthAdjust="spacingAndGlyphs" textLength="92" x="1050" y="471.0703">inputs</text><!--MD5=[6754b26702f4e78735c406bc306e458c]
cluster outputs--><polygon fill="#FFFFFF" points="2394,437,2518,437,2532,481.9766,3278,481.9766,3278,1132,2394,1132,2394,437" style="stroke: #000000; stroke-width: 3.0;"/><line style="stroke: #000000; stroke-width: 3.0;" x1="2394" x2="2532" y1="481.9766" y2="481.9766"/><text fill="#000000" font-family="sans-serif" font-size="28" font-weight="bold" lengthAdjust="spacingAndGlyphs" textLength="112" x="2402" y="468.0703">outputs</text><!--MD5=[e4782fcabd24389ff3308455bce13744]
cluster execution--><polygon fill="#FFFFFF" points="244,65,394,65,408,109.9766,962,109.9766,962,718,244,718,244,65" style="stroke: #000000; stroke-width: 3.0;"/><line style="stroke: #000000; stroke-width: 3.0;" x1="244" x2="408" y1="109.9766" y2="109.9766"/><text fill="#000000" font-family="sans-serif" font-size="28" font-weight="bold" lengthAdjust="spacingAndGlyphs" textLength="138" x="252" y="96.0703">execution</text><!--MD5=[5bb4d0d9a2162f16eebf61fb43e8e879]
cluster third_party--><polygon fill="#FFFFFF" points="1498,457,1642,457,1656,501.9766,2314,501.9766,2314,1129,1498,1129,1498,457" style="stroke: #000000; stroke-width: 3.0;"/><line style="stroke: #000000; stroke-width: 3.0;" x1="1498" x2="1656" y1="501.9766" y2="501.9766"/><text fill="#000000" font-family="sans-serif" font-size="28" font-weight="bold" lengthAdjust="spacingAndGlyphs" textLength="132" x="1506" y="488.0703">3rd party</text><!--MD5=[a269dd45c0fd8fb42f9c00dacbc713c8]
entity trial_schema--><a href="https://github.com/trubens71/verde/blob/master/schemas/verde_trial_schema.json" target="_top" title="https://github.com/trubens71/verde/blob/master/schemas/verde_trial_schema.json" xlink:actuate="onRequest" xlink:href="https://github.com/trubens71/verde/blob/master/schemas/verde_trial_schema.json" xlink:show="new" xlink:title="https://github.com/trubens71/verde/blob/master/schemas/verde_trial_schema.json" xlink:type="simple"><rect fill="#F0FFF0" height="78.9766" style="stroke: #000000; stroke-width: 3.0;" width="310" x="199" y="989"/><polygon fill="#F0FFF0" points="475,999,475,1027,499,1027,499,1011,487,999,475,999" style="stroke: #000000; stroke-width: 3.0;"/><line style="stroke: #000000; stroke-width: 3.0;" x1="487" x2="487" y1="999" y2="1011"/><line style="stroke: #000000; stroke-width: 3.0;" x1="499" x2="487" y1="1011" y2="1011"/><text fill="#000000" font-family="sans-serif" font-size="28" lengthAdjust="spacingAndGlyphs" textLength="250" x="219" y="1042.0703">verde trial schema</text></a><!--MD5=[cc5b3117b6ed899dfacc5ae4b5f59ccf]
entity meta_schema--><a href="https://github.com/trubens71/verde/blob/master/schemas/verde_meta_schema.json" target="_top" title="https://github.com/trubens71/verde/blob/master/schemas/verde_meta_schema.json" xlink:actuate="onRequest" xlink:href="https://github.com/trubens71/verde/blob/master/schemas/verde_meta_schema.json" xlink:show="new" xlink:title="https://github.com/trubens71/verde/blob/master/schemas/verde_meta_schema.json" xlink:type="simple"><rect fill="#F0FFF0" height="78.9766" style="stroke: #000000; stroke-width: 3.0;" width="324" x="108" y="1291"/><polygon fill="#F0FFF0" points="398,1301,398,1329,422,1329,422,1313,410,1301,398,1301" style="stroke: #000000; stroke-width: 3.0;"/><line style="stroke: #000000; stroke-width: 3.0;" x1="410" x2="410" y1="1301" y2="1313"/><line style="stroke: #000000; stroke-width: 3.0;" x1="422" x2="410" y1="1313" y2="1313"/><text fill="#000000" font-family="sans-serif" font-size="28" lengthAdjust="spacingAndGlyphs" textLength="264" x="128" y="1344.0703">verde meta schema</text></a><!--MD5=[092df066de59452d9162cc70ad7216dd]
entity asc_domain_schema--><a href="https://github.com/trubens71/verde/blob/master/schemas/verde_asc_domain_schema.json" target="_top" title="https://github.com/trubens71/verde/blob/master/schemas/verde_asc_domain_schema.json" xlink:actuate="onRequest" xlink:href="https://github.com/trubens71/verde/blob/master/schemas/verde_asc_domain_schema.json" xlink:show="new" xlink:title="https://github.com/trubens71/verde/blob/master/schemas/verde_asc_domain_schema.json" xlink:type="simple"><rect fill="#F0FFF0" height="111.9531" style="stroke: #000000; stroke-width: 3.0;" width="282" x="579" y="972"/><polygon fill="#F0FFF0" points="827,982,827,1010,851,1010,851,994,839,982,827,982" style="stroke: #000000; stroke-width: 3.0;"/><line style="stroke: #000000; stroke-width: 3.0;" x1="839" x2="839" y1="982" y2="994"/><line style="stroke: #000000; stroke-width: 3.0;" x1="851" x2="839" y1="994" y2="994"/><text fill="#000000" font-family="sans-serif" font-size="28" lengthAdjust="spacingAndGlyphs" textLength="222" x="599" y="1025.0703">adult social care</text><text fill="#000000" font-family="sans-serif" font-size="28" lengthAdjust="spacingAndGlyphs" textLength="216" x="599" y="1058.0469">domain schema</text></a><!--MD5=[0062ed06540ea4410f23c2359fa507cd]
entity asc_mapping_schema--><a href="https://github.com/trubens71/verde/blob/master/schemas/verde_asc_domain_mapping_schema.json" target="_top" title="https://github.com/trubens71/verde/blob/master/schemas/verde_asc_domain_mapping_schema.json" xlink:actuate="onRequest" xlink:href="https://github.com/trubens71/verde/blob/master/schemas/verde_asc_domain_mapping_schema.json" xlink:show="new" xlink:title="https://github.com/trubens71/verde/blob/master/schemas/verde_asc_domain_mapping_schema.json" xlink:type="simple"><rect fill="#F0FFF0" height="111.9531" style="stroke: #000000; stroke-width: 3.0;" width="394" x="503" y="1274"/><polygon fill="#F0FFF0" points="863,1284,863,1312,887,1312,887,1296,875,1284,863,1284" style="stroke: #000000; stroke-width: 3.0;"/><line style="stroke: #000000; stroke-width: 3.0;" x1="875" x2="875" y1="1284" y2="1296"/><line style="stroke: #000000; stroke-width: 3.0;" x1="887" x2="875" y1="1296" y2="1296"/><text fill="#000000" font-family="sans-serif" font-size="28" lengthAdjust="spacingAndGlyphs" textLength="334" x="523" y="1327.0703">adult social care domain</text><text fill="#000000" font-family="sans-serif" font-size="28" lengthAdjust="spacingAndGlyphs" textLength="234" x="523" y="1360.0469">mapping schema</text></a><!--MD5=[7bd134e6fb805184a2e3505f6db6f14b]
entity input_data--><a href="https://github.com/trubens71/verde/blob/master/asc_data/processed/set_01/AFR_T41_region_tidy.csv" target="_top" title="https://github.com/trubens71/verde/blob/master/asc_data/processed/set_01/AFR_T41_region_tidy.csv" xlink:actuate="onRequest" xlink:href="https://github.com/trubens71/verde/blob/master/asc_data/processed/set_01/AFR_T41_region_tidy.csv" xlink:show="new" xlink:title="https://github.com/trubens71/verde/blob/master/asc_data/processed/set_01/AFR_T41_region_tidy.csv" xlink:type="simple"><polygon fill="#E6E6FA" points="1129,564,1129,669.9531,1351,669.9531,1351,584,1331,564,1129,564" style="stroke: #000000; stroke-width: 3.0;"/><path d="M1331,564 L1331,584 L1351,584 " fill="#E6E6FA" style="stroke: #000000; stroke-width: 3.0;"/><text fill="#000000" font-family="sans-serif" font-size="28" lengthAdjust="spacingAndGlyphs" textLength="182" x="1149" y="611.0703">an input data</text><text fill="#000000" font-family="sans-serif" font-size="28" lengthAdjust="spacingAndGlyphs" textLength="112" x="1149" y="644.0469">(csv) file</text></a><!--MD5=[c1fc428e73253649f6ebfede9292f3e0]
entity mapping_doc--><a href="https://github.com/trubens71/verde/blob/master/asc_data/processed/set_01/AFR_T41_region_tidy_mapping.json" target="_top" title="https://github.com/trubens71/verde/blob/master/asc_data/processed/set_01/AFR_T41_region_tidy_mapping.json" xlink:actuate="onRequest" xlink:href="https://github.com/trubens71/verde/blob/master/asc_data/processed/set_01/AFR_T41_region_tidy_mapping.json" xlink:show="new" xlink:title="https://github.com/trubens71/verde/blob/master/asc_data/processed/set_01/AFR_T41_region_tidy_mapping.json" xlink:type="simple"><rect fill="#F0FFF0" height="78.9766" style="stroke: #000000; stroke-width: 3.0;" width="264" x="1106" y="989"/><polygon fill="#F0FFF0" points="1336,999,1336,1027,1360,1027,1360,1011,1348,999,1336,999" style="stroke: #000000; stroke-width: 3.0;"/><line style="stroke: #000000; stroke-width: 3.0;" x1="1348" x2="1348" y1="999" y2="1011"/><line style="stroke: #000000; stroke-width: 3.0;" x1="1360" x2="1348" y1="1011" y2="1011"/><text fill="#000000" font-family="sans-serif" font-size="28" lengthAdjust="spacingAndGlyphs" textLength="204" x="1126" y="1042.0703">a mapping doc</text></a><!--MD5=[23e74b4b7283e537ab737919ada87539]
entity baseline_specs--><a href="https://trubens71.github.io/verde/laboratory/trial_02_ut/regression/vegalite/trial_02_ut.exp_01_view_all_vl.html" target="_top" title="https://trubens71.github.io/verde/laboratory/trial_02_ut/regression/vegalite/trial_02_ut.exp_01_view_all_vl.html" xlink:actuate="onRequest" xlink:href="https://trubens71.github.io/verde/laboratory/trial_02_ut/regression/vegalite/trial_02_ut.exp_01_view_all_vl.html" xlink:show="new" xlink:title="https://trubens71.github.io/verde/laboratory/trial_02_ut/regression/vegalite/trial_02_ut.exp_01_view_all_vl.html" xlink:type="simple"><rect fill="#F0FFF0" height="111.9531" style="stroke: #000000; stroke-width: 3.0;" width="304" x="2480" y="561"/><polygon fill="#F0FFF0" points="2750,571,2750,599,2774,599,2774,583,2762,571,2750,571" style="stroke: #000000; stroke-width: 3.0;"/><line style="stroke: #000000; stroke-width: 3.0;" x1="2762" x2="2762" y1="571" y2="583"/><line style="stroke: #000000; stroke-width: 3.0;" x1="2774" x2="2762" y1="583" y2="583"/><text fill="#000000" font-family="sans-serif" font-size="28" lengthAdjust="spacingAndGlyphs" textLength="244" x="2500" y="614.0703">baseline vega-lite</text><text fill="#000000" font-family="sans-serif" font-size="28" lengthAdjust="spacingAndGlyphs" textLength="186" x="2500" y="647.0469">specifications</text></a><!--MD5=[674a497f6cdec05a492a64514b644b98]
entity verde_specs--><a href="https://trubens71.github.io/verde/laboratory/trial_02_ut/regression/vegalite/trial_02_ut.exp_01_view_all_vl.html" target="_top" title="https://trubens71.github.io/verde/laboratory/trial_02_ut/regression/vegalite/trial_02_ut.exp_01_view_all_vl.html" xlink:actuate="onRequest" xlink:href="https://trubens71.github.io/verde/laboratory/trial_02_ut/regression/vegalite/trial_02_ut.exp_01_view_all_vl.html" xlink:show="new" xlink:title="https://trubens71.github.io/verde/laboratory/trial_02_ut/regression/vegalite/trial_02_ut.exp_01_view_all_vl.html" xlink:type="simple"><rect fill="#F0FFF0" height="111.9531" style="stroke: #000000; stroke-width: 3.0;" width="376" x="2854" y="561"/><polygon fill="#F0FFF0" points="3196,571,3196,599,3220,599,3220,583,3208,571,3196,571" style="stroke: #000000; stroke-width: 3.0;"/><line style="stroke: #000000; stroke-width: 3.0;" x1="3208" x2="3208" y1="571" y2="583"/><line style="stroke: #000000; stroke-width: 3.0;" x1="3220" x2="3208" y1="583" y2="583"/><text fill="#000000" font-family="sans-serif" font-size="28" lengthAdjust="spacingAndGlyphs" textLength="298" x="2874" y="614.0703">verde domain specific</text><text fill="#000000" font-family="sans-serif" font-size="28" lengthAdjust="spacingAndGlyphs" textLength="316" x="2874" y="647.0469">vega-lite specifications</text></a><!--MD5=[95ea0926c63b844e7e81f6e51183a3bf]
entity exploratory_vis--><a href="https://trubens71.github.io/verde/laboratory/trial_03_ut/regression/vegalite/trial_03_ut.exp_01_view_compare.html" target="_top" title="https://trubens71.github.io/verde/laboratory/trial_03_ut/regression/vegalite/trial_03_ut.exp_01_view_compare.html" xlink:actuate="onRequest" xlink:href="https://trubens71.github.io/verde/laboratory/trial_03_ut/regression/vegalite/trial_03_ut.exp_01_view_compare.html" xlink:show="new" xlink:title="https://trubens71.github.io/verde/laboratory/trial_03_ut/regression/vegalite/trial_03_ut.exp_01_view_compare.html" xlink:type="simple"><rect fill="#F0FFF0" height="111.9531" style="stroke: #000000; stroke-width: 3.0;" width="398" x="2607" y="972"/><polygon fill="#F0FFF0" points="2971,982,2971,1010,2995,1010,2995,994,2983,982,2971,982" style="stroke: #000000; stroke-width: 3.0;"/><line style="stroke: #000000; stroke-width: 3.0;" x1="2983" x2="2983" y1="982" y2="994"/><line style="stroke: #000000; stroke-width: 3.0;" x1="2995" x2="2983" y1="994" y2="994"/><text fill="#000000" font-family="sans-serif" font-size="28" lengthAdjust="spacingAndGlyphs" textLength="338" x="2627" y="1025.0703">exploratory visualisation</text><text fill="#000000" font-family="sans-serif" font-size="28" lengthAdjust="spacingAndGlyphs" textLength="220" x="2627" y="1058.0469">of visualisations</text></a><!--MD5=[969f7cf99817aae452b3f8077b35f510]
entity trial_config--><a href="https://github.com/trubens71/verde/blob/master/laboratory/example/trial.yaml" target="_top" title="https://github.com/trubens71/verde/blob/master/laboratory/example/trial.yaml" xlink:actuate="onRequest" xlink:href="https://github.com/trubens71/verde/blob/master/laboratory/example/trial.yaml" xlink:show="new" xlink:title="https://github.com/trubens71/verde/blob/master/laboratory/example/trial.yaml" xlink:type="simple"><rect fill="#F0FFF0" height="78.9766" style="stroke: #000000; stroke-width: 3.0;" width="308" x="292" y="578"/><polygon fill="#F0FFF0" points="566,588,566,616,590,616,590,600,578,588,566,588" style="stroke: #000000; stroke-width: 3.0;"/><line style="stroke: #000000; stroke-width: 3.0;" x1="578" x2="578" y1="588" y2="600"/><line style="stroke: #000000; stroke-width: 3.0;" x1="590" x2="578" y1="600" y2="600"/><text fill="#000000" font-family="sans-serif" font-size="28" lengthAdjust="spacingAndGlyphs" textLength="248" x="312" y="631.0703">trial configuration</text></a><!--MD5=[54dace2244dae2525908e82fa6baea7f]
entity verde--><a href="https://github.com/trubens71/verde/tree/master/src" target="_top" title="https://github.com/trubens71/verde/tree/master/src" xlink:actuate="onRequest" xlink:href="https://github.com/trubens71/verde/tree/master/src" xlink:show="new" xlink:title="https://github.com/trubens71/verde/tree/master/src" xlink:type="simple"><rect fill="#F0FFF0" height="105.9531" style="stroke: #808080; stroke-width: 3.0;" width="294" x="581" y="189"/><rect fill="#F0FFF0" height="10" style="stroke: #808080; stroke-width: 3.0;" width="20" x="571" y="199"/><rect fill="#F0FFF0" height="10" style="stroke: #808080; stroke-width: 3.0;" width="20" x="571" y="274.9531"/><text fill="#000000" font-family="sans-serif" font-size="28" lengthAdjust="spacingAndGlyphs" textLength="254" x="601" y="236.0703">verde visualisation</text><text fill="#000000" font-family="sans-serif" font-size="28" lengthAdjust="spacingAndGlyphs" textLength="136" x="601" y="269.0469">generator</text></a><!--MD5=[d37969913b54bfbb2dbac84ccd040255]
entity verde_rules--><a href="https://github.com/trubens71/verde/tree/master/asp/verde_rule_templates" target="_top" title="https://github.com/trubens71/verde/tree/master/asp/verde_rule_templates" xlink:actuate="onRequest" xlink:href="https://github.com/trubens71/verde/tree/master/asp/verde_rule_templates" xlink:show="new" xlink:title="https://github.com/trubens71/verde/tree/master/asp/verde_rule_templates" xlink:type="simple"><rect fill="#F0FFF0" height="97.9531" style="stroke: #000000; stroke-width: 3.0;" width="220" x="678" y="572"/><rect fill="#F0FFF0" height="97.9531" style="stroke: #000000; stroke-width: 3.0;" width="220" x="670" y="564"/><text fill="#000000" font-family="sans-serif" font-size="28" lengthAdjust="spacingAndGlyphs" textLength="188" x="686" y="607.0703">verde domain</text><text fill="#000000" font-family="sans-serif" font-size="28" lengthAdjust="spacingAndGlyphs" textLength="178" x="686" y="640.0469">specific rules</text></a><!--MD5=[16e25d87e9ff52724573d85c7c585005]
entity draco--><a href="https://github.com/uwdata/draco" target="_top" title="https://github.com/uwdata/draco" xlink:actuate="onRequest" xlink:href="https://github.com/uwdata/draco" xlink:show="new" xlink:title="https://github.com/uwdata/draco" xlink:type="simple"><rect fill="#F8F8FF" height="72.9766" style="stroke: #808080; stroke-width: 3.0;" width="118" x="1893" y="581"/><rect fill="#F8F8FF" height="10" style="stroke: #808080; stroke-width: 3.0;" width="20" x="1883" y="591"/><rect fill="#F8F8FF" height="10" style="stroke: #808080; stroke-width: 3.0;" width="20" x="1883" y="633.9766"/><text fill="#000000" font-family="sans-serif" font-size="28" lengthAdjust="spacingAndGlyphs" textLength="78" x="1913" y="628.0703">draco</text></a><!--MD5=[a6a36ebe4393ce03327e5052e53c4eb7]
entity clingo--><a href="https://github.com/potassco/clingo" target="_top" title="https://github.com/potassco/clingo" xlink:actuate="onRequest" xlink:href="https://github.com/potassco/clingo" xlink:show="new" xlink:title="https://github.com/potassco/clingo" xlink:type="simple"><rect fill="#F8F8FF" height="72.9766" style="stroke: #808080; stroke-width: 3.0;" width="124" x="2142" y="581"/><rect fill="#F8F8FF" height="10" style="stroke: #808080; stroke-width: 3.0;" width="20" x="2132" y="591"/><rect fill="#F8F8FF" height="10" style="stroke: #808080; stroke-width: 3.0;" width="20" x="2132" y="633.9766"/><text fill="#000000" font-family="sans-serif" font-size="28" lengthAdjust="spacingAndGlyphs" textLength="84" x="2162" y="628.0703">clingo</text></a><!--MD5=[add3aa9aa4481e16593942f783d3e256]
entity draco_kb--><a href="https://github.com/trubens71/verde/tree/master/asp/draco_base" target="_top" title="https://github.com/trubens71/verde/tree/master/asp/draco_base" xlink:actuate="onRequest" xlink:href="https://github.com/trubens71/verde/tree/master/asp/draco_base" xlink:show="new" xlink:title="https://github.com/trubens71/verde/tree/master/asp/draco_base" xlink:type="simple"><rect fill="#F8F8FF" height="97.9531" style="stroke: #000000; stroke-width: 3.0;" width="288" x="1812" y="983"/><rect fill="#F8F8FF" height="97.9531" style="stroke: #000000; stroke-width: 3.0;" width="288" x="1804" y="975"/><text fill="#000000" font-family="sans-serif" font-size="28" lengthAdjust="spacingAndGlyphs" textLength="256" x="1820" y="1018.0703">draco visualisation</text><text fill="#000000" font-family="sans-serif" font-size="28" lengthAdjust="spacingAndGlyphs" textLength="222" x="1820" y="1051.0469">knowledge base</text></a><!--MD5=[8142ed7fc95e467025b794e223292368]
entity dziban--><a href="https://github.com/uwdata/dziban" target="_top" title="https://github.com/uwdata/dziban" xlink:actuate="onRequest" xlink:href="https://github.com/uwdata/dziban" xlink:show="new" xlink:title="https://github.com/uwdata/dziban" xlink:type="simple"><rect fill="#F8F8FF" height="72.9766" style="stroke: #808080; stroke-width: 3.0;" width="134" x="1585" y="581"/><rect fill="#F8F8FF" height="10" style="stroke: #808080; stroke-width: 3.0;" width="20" x="1575" y="591"/><rect fill="#F8F8FF" height="10" style="stroke: #808080; stroke-width: 3.0;" width="20" x="1575" y="633.9766"/><text fill="#000000" font-family="sans-serif" font-size="28" lengthAdjust="spacingAndGlyphs" textLength="94" x="1605" y="628.0703">dziban</text></a><!--MD5=[a454d9a111be8c64a2e9968b1040eee4]
link inputs to execution--><!--MD5=[6414720093d10fedbe33dc628c393fb8]
link inputs to schemas--><!--MD5=[a845d4d6c4f9007718227705fb92d882]
link execution to third_party--><!--MD5=[af730f9cdd214d6baa937a7750374e51]
link execution to outputs--><!--MD5=[984153896208cf920b324abbb9f4c2e3]
link asc_domain_schema to meta_schema--><path d="M651.92,1084.64 C619.8,1109.68 580.58,1139.24 544,1164 C478.64,1208.24 401.22,1254 345.38,1285.9 " fill="none" id="asc_domain_schema-&gt;meta_schema" style="stroke: #A80036; stroke-width: 2.0; stroke-dasharray: 7.0,7.0;"/><polygon fill="#A80036" points="336.6,1290.9,356.201,1288.9502,345.2912,1285.954,348.2874,1275.0443,336.6,1290.9" style="stroke: #A80036; stroke-width: 2.0;"/><text fill="#000000" font-family="sans-serif" font-size="26" lengthAdjust="spacingAndGlyphs" textLength="152" x="518" y="1207.1367">validated by</text><!--MD5=[d378fa50dab01319b697e9fd0b44b4d2]
link trial_config to trial_schema--><path d="M437.5,656.56 C420.74,730.76 383.38,896.04 364.84,978.02 " fill="none" id="trial_config-&gt;trial_schema" style="stroke: #A80036; stroke-width: 2.0; stroke-dasharray: 7.0,7.0;"/><polygon fill="#A80036" points="362.46,988.54,374.2282,972.7441,364.6626,978.7856,358.6212,969.22,362.46,988.54" style="stroke: #A80036; stroke-width: 2.0;"/><text fill="#000000" font-family="sans-serif" font-size="26" lengthAdjust="spacingAndGlyphs" textLength="152" x="414" y="793.1367">validated by</text><!--MD5=[51b84fab181ba9684445af17c2bb257e]
reverse link asc_mapping_schema to mapping_doc--><path d="M807.06,1268.7 C915.44,1208.66 1079.72,1117.68 1170.94,1067.14 " fill="none" id="asc_mapping_schema&lt;-mapping_doc" style="stroke: #A80036; stroke-width: 2.0; stroke-dasharray: 7.0,7.0;"/><polygon fill="#A80036" points="798.04,1273.7,817.6643,1272.0008,806.7937,1268.8654,809.929,1257.9949,798.04,1273.7" style="stroke: #A80036; stroke-width: 2.0;"/><text fill="#000000" font-family="sans-serif" font-size="26" lengthAdjust="spacingAndGlyphs" textLength="152" x="954" y="1207.1367">validated by</text><!--MD5=[30608637aa91c6b913bd5c51bf4d49e1]
reverse link asc_domain_schema to asc_mapping_schema--><path d="M715.64,1095.06 C712.04,1148.52 707.02,1223.4 703.64,1273.68 " fill="none" id="asc_domain_schema&lt;-asc_mapping_schema" style="stroke: #A80036; stroke-width: 2.0; stroke-dasharray: 7.0,7.0;"/><polygon fill="#A80036" points="716.34,1084.66,707.1769,1102.0967,715.6843,1094.6385,723.1425,1103.1458,716.34,1084.66" style="stroke: #A80036; stroke-width: 2.0;"/><text fill="#000000" font-family="sans-serif" font-size="26" lengthAdjust="spacingAndGlyphs" textLength="130" x="710" y="1207.1367">references</text><!--MD5=[1d98ba0cd7ebc7f15fbcdc8474849ad3]
link mapping_doc to asc_domain_schema--><path d="M1205.14,988.4 C1160.08,937.54 1073.74,851.84 978,818 C932.74,802 912.68,796.04 870,818 C811.5,848.1 770.74,912.78 746.64,962.46 " fill="none" id="mapping_doc-&gt;asc_domain_schema" style="stroke: #A80036; stroke-width: 2.0; stroke-dasharray: 7.0,7.0;"/><polygon fill="#A80036" points="742.34,971.54,757.2859,958.7096,746.6282,962.5061,742.8317,951.8484,742.34,971.54" style="stroke: #A80036; stroke-width: 2.0;"/><text fill="#000000" font-family="sans-serif" font-size="26" lengthAdjust="spacingAndGlyphs" textLength="102" x="933" y="793.1367">maps to</text><!--MD5=[8272bbbd9115a2e4e3c8bf9543390b61]
reverse link input_data to mapping_doc--><path d="M1239.7,680.64 C1239.28,766.28 1238.52,918.56 1238.18,988.72 " fill="none" id="input_data&lt;-mapping_doc" style="stroke: #A80036; stroke-width: 2.0; stroke-dasharray: 7.0,7.0;"/><polygon fill="#A80036" points="1239.74,670.54,1231.6373,688.494,1239.6829,680.5398,1247.637,688.5854,1239.74,670.54" style="stroke: #A80036; stroke-width: 2.0;"/><text fill="#000000" font-family="sans-serif" font-size="26" lengthAdjust="spacingAndGlyphs" textLength="136" x="1240" y="793.1367">maps from</text><!--MD5=[c78671d45395bfaf7ddc38754fe96359]
link verde to trial_config--><path d="M580.56,283.22 C543.88,299.72 508.18,322.82 484,355 C437.56,416.8 435.94,510.7 440.16,567.14 " fill="none" id="verde-&gt;trial_config" style="stroke: #A80036; stroke-width: 2.0; stroke-dasharray: 7.0,7.0;"/><polygon fill="#A80036" points="441.02,577.22,447.4975,558.6178,440.1895,567.2545,431.5528,559.9465,441.02,577.22" style="stroke: #A80036; stroke-width: 2.0;"/><text fill="#000000" font-family="sans-serif" font-size="26" lengthAdjust="spacingAndGlyphs" textLength="174" x="486" y="382.1367">configured by</text><!--MD5=[19d788028cdc56f865ca82cb3157d901]
link verde to verde_rules--><path d="M698.12,295.04 C685.52,322.52 675.16,357.24 682,389 C694.68,447.94 724.02,510.02 747.98,554.18 " fill="none" id="verde-&gt;verde_rules" style="stroke: #A80036; stroke-width: 2.0; stroke-dasharray: 7.0,7.0;"/><polygon fill="#A80036" points="753,563.32,751.3278,543.6934,748.1775,554.5596,737.3113,551.4093,753,563.32" style="stroke: #A80036; stroke-width: 2.0;"/><text fill="#000000" font-family="sans-serif" font-size="26" lengthAdjust="spacingAndGlyphs" textLength="158" x="684" y="382.1367">incorporates</text><!--MD5=[eda3efe0f75b74cab5a6b541de161605]
link verde to third_party--><path d="M875.84,292.7 C960.76,320.74 1052.46,351.18 1062,355 C1094.86,368.16 1099.72,380.24 1134,389 C1191.8,403.78 1351.78,372.8 1402,405 C1445.82,433.1 1473.635,484.41 1490.585,529.275 C1492.7038,534.8831 1494.6527,540.3905 1496.442,545.7393 C1496.8893,547.0765 1497.3266,548.4038 1497.7541,549.7203 " fill="none" id="verde-&gt;third_party" style="stroke: #A80036; stroke-width: 2.0; stroke-dasharray: 7.0,7.0;"/><polygon fill="#A80036" points="1497.7541,549.7203,1499.8035,530.1295,1494.6655,540.2092,1484.5858,535.0712,1497.7541,549.7203" style="stroke: #A80036; stroke-width: 2.0;"/><text fill="#000000" font-family="sans-serif" font-size="26" lengthAdjust="spacingAndGlyphs" textLength="58" x="1136" y="382.1367">uses</text><!--MD5=[0d5a597bc66124e1f93f03423796bec4]
link verde to input_data--><path d="M780.48,295.66 C817.38,328.54 869.7,368.64 924,389 C965.34,404.5 1084.82,381.18 1122,405 C1174.82,438.84 1206.26,505.12 1223.22,554.2 " fill="none" id="verde-&gt;input_data" style="stroke: #A80036; stroke-width: 2.0; stroke-dasharray: 7.0,7.0;"/><polygon fill="#A80036" points="1226.44,563.78,1228.3197,544.1722,1223.2692,554.296,1213.1453,549.2455,1226.44,563.78" style="stroke: #A80036; stroke-width: 2.0;"/><text fill="#000000" font-family="sans-serif" font-size="26" lengthAdjust="spacingAndGlyphs" textLength="126" x="926" y="382.1367">processes</text><!--MD5=[a2feb90631830099ea2ed872d5a72744]
link verde to outputs--><path d="M875.56,293.22 C878.4,293.84 881.2,294.44 884,295 C1398.98,398.22 1538.2,350.34 2062,389 C2088.22,390.94 2275.94,390.72 2298,405 C2341.71,433.28 2369.525,484.595 2386.5025,529.4175 C2388.6247,535.0203 2390.5775,540.5217 2392.3709,545.8639 C2392.8193,547.1995 2393.2577,548.5251 2393.6862,549.8399 " fill="none" id="verde-&gt;outputs" style="stroke: #A80036; stroke-width: 2.0; stroke-dasharray: 7.0,7.0;"/><polygon fill="#A80036" points="2393.6862,549.8399,2395.7139,530.2468,2390.5871,540.3322,2380.5016,535.2055,2393.6862,549.8399" style="stroke: #A80036; stroke-width: 2.0;"/><text fill="#000000" font-family="sans-serif" font-size="26" lengthAdjust="spacingAndGlyphs" textLength="116" x="2064" y="382.1367">produces</text><!--MD5=[f725f1f8ddbf5fe00e6693821e9a4a1e]
link draco to clingo--><path d="M2011.08,617 C2046.98,617 2093.1,617 2131.24,617 " fill="none" id="draco-&gt;clingo" style="stroke: #A80036; stroke-width: 2.0; stroke-dasharray: 7.0,7.0;"/><polygon fill="#A80036" points="2141.78,617,2123.78,609,2131.78,617,2123.78,625,2141.78,617" style="stroke: #A80036; stroke-width: 2.0;"/><text fill="#000000" font-family="sans-serif" font-size="26" lengthAdjust="spacingAndGlyphs" textLength="58" x="2047.5" y="604.1367">uses</text><!--MD5=[1b9506126b2048ce849c590a367a4619]
link draco to draco_kb--><path d="M1952,653 C1952,721.66 1952,877.72 1952,964.64 " fill="none" id="draco-&gt;draco_kb" style="stroke: #A80036; stroke-width: 2.0; stroke-dasharray: 7.0,7.0;"/><polygon fill="#A80036" points="1952,974.88,1960,956.88,1952,964.88,1944,956.88,1952,974.88" style="stroke: #A80036; stroke-width: 2.0;"/><text fill="#000000" font-family="sans-serif" font-size="26" lengthAdjust="spacingAndGlyphs" textLength="158" x="1954" y="793.1367">incorporates</text><!--MD5=[acf3ce55456d5dd636efd949ba1cbf1f]
link dziban to draco--><path d="M1719.32,617 C1767.72,617 1832.78,617 1881.82,617 " fill="none" id="dziban-&gt;draco" style="stroke: #A80036; stroke-width: 2.0; stroke-dasharray: 7.0,7.0;"/><polygon fill="#A80036" points="1892.02,617,1874.02,609,1882.02,617,1874.02,625,1892.02,617" style="stroke: #A80036; stroke-width: 2.0;"/><text fill="#000000" font-family="sans-serif" font-size="26" lengthAdjust="spacingAndGlyphs" textLength="100" x="1756" y="604.1367">extends</text><!--MD5=[e5ce989d302a240541a275e791547c04]
reverse link baseline_specs to exploratory_vis--><path d="M2576.48,682.36 C2552.92,717.14 2534.5,761 2552,800 C2584.86,873.24 2654.5,932.44 2712.56,971.86 " fill="none" id="baseline_specs&lt;-exploratory_vis" style="stroke: #A80036; stroke-width: 2.0; stroke-dasharray: 7.0,7.0;"/><polygon fill="#A80036" points="2582.56,673.72,2565.6412,683.8073,2576.7909,681.8881,2578.7101,693.0378,2582.56,673.72" style="stroke: #A80036; stroke-width: 2.0;"/><text fill="#000000" font-family="sans-serif" font-size="26" lengthAdjust="spacingAndGlyphs" textLength="292" x="2554" y="793.1367">explores and compares</text><!--MD5=[da934eabb155f9b4036f0aa221d4f989]
reverse link verde_specs to exploratory_vis--><path d="M3005.2,682.46 C2959.1,761.96 2880.92,896.8 2837.46,971.74 " fill="none" id="verde_specs&lt;-exploratory_vis" style="stroke: #A80036; stroke-width: 2.0; stroke-dasharray: 7.0,7.0;"/><polygon fill="#A80036" points="3010.66,673.04,2994.7014,684.5866,3005.6373,681.6871,3008.5368,692.6229,3010.66,673.04" style="stroke: #A80036; stroke-width: 2.0;"/><text fill="#000000" font-family="sans-serif" font-size="26" lengthAdjust="spacingAndGlyphs" textLength="292" x="2954" y="793.1367">explores and compares</text><!--MD5=[c64145cdf553f0119dc8828ebdb0a688]
@startuml

skinparam shadowing false
skinparam ComponentBorderColor gray
allow_mixing

package "schemas" as schemas{
    artifact "verde trial schema" as trial_schema [[https://github.com/trubens71/verde/blob/master/schemas/verde_trial_schema.json]] #honeydew
    artifact "verde meta schema" as meta_schema [[https://github.com/trubens71/verde/blob/master/schemas/verde_meta_schema.json]] #honeydew
    artifact "adult social care\ndomain schema" as asc_domain_schema [[https://github.com/trubens71/verde/blob/master/schemas/verde_asc_domain_schema.json]] #honeydew
    artifact "adult social care domain\nmapping schema" as asc_mapping_schema [[https://github.com/trubens71/verde/blob/master/schemas/verde_asc_domain_mapping_schema.json]] #honeydew
}

package "inputs" as inputs {
    file "an input data\n(csv) file" as input_data [[https://github.com/trubens71/verde/blob/master/asc_data/processed/set_01/AFR_T41_region_tidy.csv]] #Lavender
    artifact "a mapping doc" as mapping_doc [[https://github.com/trubens71/verde/blob/master/asc_data/processed/set_01/AFR_T41_region_tidy_mapping.json]] #honeydew
}

package "outputs" as outputs {
    artifact "baseline vega-lite\nspecifications" as baseline_specs [[https://trubens71.github.io/verde/laboratory/trial_02_ut/regression/vegalite/trial_02_ut.exp_01_view_all_vl.html]] #honeydew
    artifact "verde domain specific\nvega-lite specifications" as verde_specs [[https://trubens71.github.io/verde/laboratory/trial_02_ut/regression/vegalite/trial_02_ut.exp_01_view_all_vl.html]] #honeydew
    artifact "exploratory visualisation\nof visualisations" as exploratory_vis [[https://trubens71.github.io/verde/laboratory/trial_03_ut/regression/vegalite/trial_03_ut.exp_01_view_compare.html]] #honeydew
}

package "execution" as execution {
    artifact "trial configuration" as trial_config [[https://github.com/trubens71/verde/blob/master/laboratory/example/trial.yaml]] #honeydew
    component [verde visualisation\ngenerator] as verde [[https://github.com/trubens71/verde/tree/master/src]] #honeydew
    collections "verde domain\nspecific rules" as verde_rules [[https://github.com/trubens71/verde/tree/master/asp/verde_rule_templates]] #honeydew
}

package "3rd party" as third_party {
    component [draco] as draco [[https://github.com/uwdata/draco]] #ghostwhite
    component [clingo] as clingo [[https://github.com/potassco/clingo]] #ghostwhite
    collections "draco visualisation\nknowledge base" as draco_kb [[https://github.com/trubens71/verde/tree/master/asp/draco_base]] #GhostWhite
    component [dziban] as dziban [[https://github.com/uwdata/dziban]] #ghostwhite
}

inputs .[hidden]d.> execution
inputs .[hidden]r.> schemas
execution .[hidden]r.> third_party
execution .[hidden]d.> outputs

asc_domain_schema .down.> meta_schema : validated by
trial_config .down.> trial_schema : validated by
mapping_doc .left.> asc_mapping_schema : validated by
asc_mapping_schema .up.> asc_domain_schema : references
mapping_doc ..> asc_domain_schema : maps to
mapping_doc .up.> input_data : maps from

verde ..> trial_config : configured by
verde ..> verde_rules : incorporates
verde ..> third_party : uses
verde ..> input_data : processes
verde ..> outputs : produces

draco .r.> clingo : uses
draco .d.> draco_kb : incorporates
dziban .r.> draco : extends

exploratory_vis .u.> baseline_specs :  explores and compares
exploratory_vis .u.> verde_specs :  explores and compares

@enduml

PlantUML version 1.2020.09(Sun May 10 11:51:06 BST 2020)
(GPL source distribution)
Java Runtime: OpenJDK Runtime Environment
JVM: OpenJDK 64-Bit Server VM
Java Version: 11.0.7+10-b765.53
Operating System: Mac OS X
Default Encoding: UTF-8
Language: en
Country: GB
--></g></svg>
